<svg xmlns="http://www.w3.org/2000/svg" width="146.888" height="41.8"><g data-name="Group-13"><path d="m129.854 38.374 1.542-3.157c.22-.588.808-.71 1.322-.416 0 0 2.57 1.395 5.188 1.395 1.15 0 1.933-.465 1.933-1.469 0-1.052-.807-1.688-3.817-2.912-4.381-1.738-6.437-4.136-6.437-7.684 0-3.55 2.57-6.877 8.37-6.877 3.353 0 5.825.978 7.024 1.81.514.343.807.98.514 1.567l-1.42 2.961c-.293.514-.905.587-1.37.416 0 0-2.57-1.224-4.723-1.224-1.37 0-1.934.588-1.934 1.347 0 1.052 1.028 1.394 3.133 2.276 4.38 1.737 7.709 3.67 7.709 8.222 0 3.843-3.304 7.098-9.055 7.098-3.77 0-6.388-1.224-7.587-2.154-.392-.27-.636-.734-.392-1.2" fill="#282828" fill-rule="evenodd" data-name="Fill-11"/><path d="M115.88 17.278c6.755 0 12.237 5.604 12.237 12.188 0 6.705-5.482 12.285-12.237 12.285-6.754 0-12.236-5.604-12.236-12.285 0-6.608 5.506-12.188 12.236-12.188m0 18.184c3.157 0 5.727-2.668 5.727-5.996 0-3.255-2.57-5.874-5.727-5.874-3.23 0-5.726 2.619-5.726 5.874 0 3.304 2.52 5.996 5.726 5.996" fill="#282828" fill-rule="evenodd" data-name="Fill-9"/><path d="M61.893 19.016c0-.661.513-1.126 1.1-1.126h2.154c.514 0 .882.294 1.004.66l.807 2.277c.98-1.126 3.671-3.525 7.807-3.525 3.329 0 5.654 1.322 7.587 3.696.979-1.077 4.014-3.696 8.223-3.696 7.464 0 10.205 5.678 10.205 11.943V40.65c0 .587-.465 1.126-1.1 1.126h-4.724c-.637 0-1.102-.539-1.102-1.126V28.83c0-3.109-1.468-5.067-4.38-5.067-3.378 0-4.895 2.497-4.895 2.497s.05 1.199.05 2.276V40.65c0 .587-.515 1.126-1.102 1.126h-4.38c-.637 0-1.102-.539-1.102-1.126V28.83c0-3.109-1.346-5.067-4.307-5.067-2.913 0-4.308 2.154-4.895 3.77v13.141c0 .588-.514 1.126-1.101 1.126h-4.724c-.587 0-1.101-.538-1.101-1.126V19.016h-.024Z" fill="#282828" fill-rule="evenodd" data-name="Fill-7"/><path d="M48.016 17.278C41.017 17.278 36 22.931 36 29.515c0 6.705 5.017 12.236 12.065 12.236 3.818 0 6.828-1.395 8.786-3.206.587-.465.465-1.101.049-1.517l-2.423-2.741c-.416-.465-.954-.343-1.542 0-1.052.759-2.765 1.468-4.6 1.468-3.427 0-5.483-2.667-5.654-5.066h15.076c.538 0 1.052-.416 1.125-.979.05-.416.123-1.174.123-1.566.024-6.314-4.92-10.866-10.989-10.866Zm-4.772 9.324c.294-2.227 2.227-3.964 4.601-3.964 2.227 0 4.136 1.81 4.307 3.964h-8.908Z" fill="#282828" fill-rule="evenodd" data-name="Fill-5"/><path d="M40.307 9.349v-1.37c0-.441.465-.76 1.126-.76h15.051c.636 0 1.126.319 1.126.76v1.37c0 .416-.465.734-1.126.734H41.433c-.66 0-1.126-.318-1.126-.734" fill="#282828" fill-rule="evenodd" data-name="Fill-3"/><path d="M0 1.126C0 .538.465 0 1.028 0h13.509c11.013 0 20.02 9.373 20.02 20.802 0 11.576-9.007 20.925-20.02 20.925H1.027C.466 41.727 0 41.188 0 40.6V1.126Zm13.852 33.357c7.415 0 12.824-5.85 12.824-13.656 0-7.758-5.409-13.607-12.824-13.607H7.366v27.263h6.486Z" fill="#282828" fill-rule="evenodd" data-name="Fill-1"/></g></svg>